<?xml version="1.0" encoding="UTF-8"?>
<svg width="20px" height="20px" viewBox="0 0 20 20" version="1.1" xmlns="http://www.w3.org/2000/svg" xmlns:xlink="http://www.w3.org/1999/xlink">
    <!-- Generator: Sketch 41 (35326) - http://www.bohemiancoding.com/sketch -->
    <title>Slice 1</title>
    <desc>Created with Sketch.</desc>
    <defs></defs>
    <g id="Page-1" stroke="none" stroke-width="1" fill="none" fill-rule="evenodd">
        <g id="outline-sentiment_dissatisfied-24px" transform="translate(-2.000000, -2.000000)">
            <polygon id="Shape" points="0 0 24 0 24 24 0 24"></polygon>
            <circle id="Oval" fill="#FFFFFF" cx="15.5" cy="9.5" r="1.5"></circle>
            <circle id="Oval" fill="#FFFFFF" cx="8.5" cy="9.5" r="1.5"></circle>
            <path d="M12,14 C9.67,14 7.68,15.45 6.88,17.5 L8.55,17.5 C9.24,16.31 10.52,15.5 12,15.5 C13.48,15.5 14.75,16.31 15.45,17.5 L17.12,17.5 C16.32,15.45 14.33,14 12,14 L12,14 Z M11.99,2 C6.47,2 2,6.48 2,12 C2,17.52 6.47,22 11.99,22 C17.52,22 22,17.52 22,12 C22,6.48 17.52,2 11.99,2 Z M12,20 C7.58,20 4,16.42 4,12 C4,7.58 7.58,4 12,4 C16.42,4 20,7.58 20,12 C20,16.42 16.42,20 12,20 Z" id="Shape" fill="#FFFFFF"></path>
        </g>
    </g>
</svg>